# Blender 4.1.1
# www.blender.org
mtllib sunn.mtl
o Cube
v 1.500000 2.000000 -0.500000
v 1.500000 0.000000 -0.500000
v 1.500000 2.000000 1.500000
v 1.500000 0.000000 1.500000
v -0.500000 2.000000 -0.500000
v -0.500000 0.000000 -0.500000
v -0.500000 2.000000 1.500000
v -0.500000 0.000000 1.500000
v 2.023057 3.229787 2.023057
v -1.023057 3.229787 2.023057
v 2.023057 3.229787 -1.023057
v -1.023057 3.229787 -1.023057
vn -0.0000 -0.3914 -0.9202
vn -0.0000 -0.0000 1.0000
vn -1.0000 -0.0000 -0.0000
vn -0.0000 -1.0000 -0.0000
vn 1.0000 -0.0000 -0.0000
vn -0.0000 -0.0000 -1.0000
vn -0.0000 1.0000 -0.0000
vn -0.0000 -0.3914 0.9202
vn -0.9202 -0.3914 -0.0000
vn 0.9202 -0.3914 -0.0000
vt 0.625000 0.500000
vt 0.625000 0.250000
vt 0.375000 0.750000
vt 0.625000 0.750000
vt 0.625000 1.000000
vt 0.375000 1.000000
vt 0.375000 0.000000
vt 0.625000 0.000000
vt 0.375000 0.250000
vt 0.125000 0.500000
vt 0.375000 0.500000
vt 0.125000 0.750000
vt 0.875000 0.500000
vt 0.875000 0.750000
s 0
usemtl Material
f 1/1/1 5/2/1 12/2/1 11/1/1
f 4/3/2 3/4/2 7/5/2 8/6/2
f 8/7/3 7/8/3 5/2/3 6/9/3
f 6/10/4 2/11/4 4/3/4 8/12/4
f 2/11/5 1/1/5 3/4/5 4/3/5
f 6/9/6 5/2/6 1/1/6 2/11/6
f 11/1/7 12/13/7 10/14/7 9/4/7
f 7/5/8 3/4/8 9/4/8 10/5/8
f 5/2/9 7/8/9 10/8/9 12/2/9
f 3/4/10 1/1/10 11/1/10 9/4/10
